<!-- - - - - - - - - - - - - - - - -->
<!-- Ce fichier n'est pas utilisée -->
<!-- - - - - - - - - - - - - - - - -->

<svg id="jllogo" width="65%" height="100%" viewBox="0 0 465 59" fill="none"
    xmlns="http://www.w3.org/2000/svg">
    <mask id="path-1-outside-1_15_6" maskUnits="userSpaceOnUse" x="0.951996" y="0.719971"
        width="464" height="58" fill="black">
        <rect fill="white" x="0.951996" y="0.719971" width="464" height="58" />
        <path
            d="M30.816 5.81597V42.896C30.816 47.024 29.544 50.336 27 52.832C24.456 55.28 21.096 56.504 16.92 56.504C12.696 56.504 9.312 55.256 6.768 52.76C4.224 50.216 2.952 46.76 2.952 42.392H9.504C9.552 44.84 10.176 46.832 11.376 48.368C12.624 49.904 14.472 50.672 16.92 50.672C19.368 50.672 21.192 49.952 22.392 48.512C23.592 47.024 24.192 45.152 24.192 42.896V5.81597H30.816Z" />
        <path
            d="M60.9317 56.648C57.2357 56.648 53.8757 55.808 50.8517 54.128C47.8757 52.448 45.5237 50.072 43.7957 47C42.1157 43.88 41.2757 40.28 41.2757 36.2C41.2757 32.168 42.1397 28.616 43.8677 25.544C45.6437 22.424 48.0437 20.048 51.0677 18.416C54.0917 16.736 57.4757 15.896 61.2197 15.896C64.9637 15.896 68.3477 16.736 71.3717 18.416C74.3957 20.048 76.7717 22.4 78.4997 25.472C80.2757 28.544 81.1637 32.12 81.1637 36.2C81.1637 40.28 80.2517 43.88 78.4277 47C76.6517 50.072 74.2277 52.448 71.1557 54.128C68.0837 55.808 64.6757 56.648 60.9317 56.648ZM60.9317 50.888C63.2837 50.888 65.4917 50.336 67.5557 49.232C69.6197 48.128 71.2757 46.472 72.5237 44.264C73.8197 42.056 74.4677 39.368 74.4677 36.2C74.4677 33.032 73.8437 30.344 72.5957 28.136C71.3477 25.928 69.7157 24.296 67.6997 23.24C65.6837 22.136 63.4997 21.584 61.1477 21.584C58.7477 21.584 56.5397 22.136 54.5237 23.24C52.5557 24.296 50.9717 25.928 49.7717 28.136C48.5717 30.344 47.9717 33.032 47.9717 36.2C47.9717 39.416 48.5477 42.128 49.6997 44.336C50.8997 46.544 52.4837 48.2 54.4517 49.304C56.4197 50.36 58.5797 50.888 60.9317 50.888Z" />
        <path
            d="M109.362 15.824C112.338 15.824 115.026 16.472 117.426 17.768C119.826 19.016 121.698 20.912 123.042 23.456C124.434 26 125.13 29.096 125.13 32.744V56H118.65V33.68C118.65 29.744 117.666 26.744 115.698 24.68C113.73 22.568 111.042 21.512 107.634 21.512C104.178 21.512 101.418 22.592 99.3544 24.752C97.3384 26.912 96.3304 30.056 96.3304 34.184V56H89.7784V2.71997H96.3304V22.16C97.6264 20.144 99.4024 18.584 101.658 17.48C103.962 16.376 106.53 15.824 109.362 15.824Z" />
        <path
            d="M133.385 36.128C133.385 32.096 134.201 28.568 135.833 25.544C137.465 22.472 139.697 20.096 142.529 18.416C145.409 16.736 148.601 15.896 152.105 15.896C155.561 15.896 158.561 16.64 161.105 18.128C163.649 19.616 165.545 21.488 166.793 23.744V16.544H173.417V56H166.793V48.656C165.497 50.96 163.553 52.88 160.961 54.416C158.417 55.904 155.441 56.648 152.033 56.648C148.529 56.648 145.361 55.784 142.529 54.056C139.697 52.328 137.465 49.904 135.833 46.784C134.201 43.664 133.385 40.112 133.385 36.128ZM166.793 36.2C166.793 33.224 166.193 30.632 164.993 28.424C163.793 26.216 162.161 24.536 160.097 23.384C158.081 22.184 155.849 21.584 153.401 21.584C150.953 21.584 148.721 22.16 146.705 23.312C144.689 24.464 143.081 26.144 141.881 28.352C140.681 30.56 140.081 33.152 140.081 36.128C140.081 39.152 140.681 41.792 141.881 44.048C143.081 46.256 144.689 47.96 146.705 49.16C148.721 50.312 150.953 50.888 153.401 50.888C155.849 50.888 158.081 50.312 160.097 49.16C162.161 47.96 163.793 46.256 164.993 44.048C166.193 41.792 166.793 39.176 166.793 36.2Z" />
        <path
            d="M203.713 15.824C208.513 15.824 212.401 17.288 215.377 20.216C218.353 23.096 219.841 27.272 219.841 32.744V56H213.361V33.68C213.361 29.744 212.377 26.744 210.409 24.68C208.441 22.568 205.753 21.512 202.345 21.512C198.889 21.512 196.129 22.592 194.065 24.752C192.049 26.912 191.041 30.056 191.041 34.184V56H184.489V16.544H191.041V22.16C192.337 20.144 194.089 18.584 196.297 17.48C198.553 16.376 201.025 15.824 203.713 15.824Z" />
        <path d="M256.291 50.672H273.859V56H249.739V5.81597H256.291V50.672Z" />
        <path
            d="M278.369 36.128C278.369 32.096 279.185 28.568 280.817 25.544C282.449 22.472 284.681 20.096 287.513 18.416C290.393 16.736 293.585 15.896 297.089 15.896C300.545 15.896 303.545 16.64 306.089 18.128C308.633 19.616 310.529 21.488 311.777 23.744V16.544H318.401V56H311.777V48.656C310.481 50.96 308.537 52.88 305.945 54.416C303.401 55.904 300.425 56.648 297.017 56.648C293.513 56.648 290.345 55.784 287.513 54.056C284.681 52.328 282.449 49.904 280.817 46.784C279.185 43.664 278.369 40.112 278.369 36.128ZM311.777 36.2C311.777 33.224 311.177 30.632 309.977 28.424C308.777 26.216 307.145 24.536 305.081 23.384C303.065 22.184 300.833 21.584 298.385 21.584C295.937 21.584 293.705 22.16 291.689 23.312C289.673 24.464 288.065 26.144 286.865 28.352C285.665 30.56 285.065 33.152 285.065 36.128C285.065 39.152 285.665 41.792 286.865 44.048C288.065 46.256 289.673 47.96 291.689 49.16C293.705 50.312 295.937 50.888 298.385 50.888C300.833 50.888 303.065 50.312 305.081 49.16C307.145 47.96 308.777 46.256 309.977 44.048C311.177 41.792 311.777 39.176 311.777 36.2Z" />
        <path
            d="M336.026 23.888C337.37 21.536 339.338 19.616 341.93 18.128C344.522 16.64 347.474 15.896 350.786 15.896C354.338 15.896 357.53 16.736 360.362 18.416C363.194 20.096 365.426 22.472 367.058 25.544C368.69 28.568 369.506 32.096 369.506 36.128C369.506 40.112 368.69 43.664 367.058 46.784C365.426 49.904 363.17 52.328 360.29 54.056C357.458 55.784 354.29 56.648 350.786 56.648C347.378 56.648 344.378 55.904 341.786 54.416C339.242 52.928 337.322 51.032 336.026 48.728V56H329.474V2.71997H336.026V23.888ZM362.81 36.128C362.81 33.152 362.21 30.56 361.01 28.352C359.81 26.144 358.178 24.464 356.114 23.312C354.098 22.16 351.866 21.584 349.418 21.584C347.018 21.584 344.786 22.184 342.722 23.384C340.706 24.536 339.074 26.24 337.826 28.496C336.626 30.704 336.026 33.272 336.026 36.2C336.026 39.176 336.626 41.792 337.826 44.048C339.074 46.256 340.706 47.96 342.722 49.16C344.786 50.312 347.018 50.888 349.418 50.888C351.866 50.888 354.098 50.312 356.114 49.16C358.178 47.96 359.81 46.256 361.01 44.048C362.21 41.792 362.81 39.152 362.81 36.128Z" />
        <path
            d="M384.682 23.888C386.026 21.536 387.994 19.616 390.586 18.128C393.178 16.64 396.13 15.896 399.442 15.896C402.994 15.896 406.186 16.736 409.018 18.416C411.85 20.096 414.082 22.472 415.714 25.544C417.346 28.568 418.162 32.096 418.162 36.128C418.162 40.112 417.346 43.664 415.714 46.784C414.082 49.904 411.826 52.328 408.946 54.056C406.114 55.784 402.946 56.648 399.442 56.648C396.034 56.648 393.034 55.904 390.442 54.416C387.898 52.928 385.978 51.032 384.682 48.728V56H378.13V2.71997H384.682V23.888ZM411.466 36.128C411.466 33.152 410.866 30.56 409.666 28.352C408.466 26.144 406.834 24.464 404.77 23.312C402.754 22.16 400.522 21.584 398.074 21.584C395.674 21.584 393.442 22.184 391.378 23.384C389.362 24.536 387.73 26.24 386.482 28.496C385.282 30.704 384.682 33.272 384.682 36.2C384.682 39.176 385.282 41.792 386.482 44.048C387.73 46.256 389.362 47.96 391.378 49.16C393.442 50.312 395.674 50.888 398.074 50.888C400.522 50.888 402.754 50.312 404.77 49.16C406.834 47.96 408.466 46.256 409.666 44.048C410.866 41.792 411.466 39.152 411.466 36.128Z" />
        <path
            d="M462.786 34.76C462.786 36.008 462.714 37.328 462.57 38.72H431.034C431.274 42.608 432.594 45.656 434.994 47.864C437.442 50.024 440.394 51.104 443.85 51.104C446.682 51.104 449.034 50.456 450.906 49.16C452.826 47.816 454.17 46.04 454.938 43.832H461.994C460.938 47.624 458.826 50.72 455.658 53.12C452.49 55.472 448.554 56.648 443.85 56.648C440.106 56.648 436.746 55.808 433.77 54.128C430.842 52.448 428.538 50.072 426.858 47C425.178 43.88 424.338 40.28 424.338 36.2C424.338 32.12 425.154 28.544 426.786 25.472C428.418 22.4 430.698 20.048 433.626 18.416C436.602 16.736 440.01 15.896 443.85 15.896C447.594 15.896 450.906 16.712 453.786 18.344C456.666 19.976 458.874 22.232 460.41 25.112C461.994 27.944 462.786 31.16 462.786 34.76ZM456.018 33.392C456.018 30.896 455.466 28.76 454.362 26.984C453.258 25.16 451.746 23.792 449.826 22.88C447.954 21.92 445.866 21.44 443.562 21.44C440.25 21.44 437.418 22.496 435.066 24.608C432.762 26.72 431.442 29.648 431.106 33.392H456.018Z" />
    </mask>
    <path
        d="M30.816 5.81597V42.896C30.816 47.024 29.544 50.336 27 52.832C24.456 55.28 21.096 56.504 16.92 56.504C12.696 56.504 9.312 55.256 6.768 52.76C4.224 50.216 2.952 46.76 2.952 42.392H9.504C9.552 44.84 10.176 46.832 11.376 48.368C12.624 49.904 14.472 50.672 16.92 50.672C19.368 50.672 21.192 49.952 22.392 48.512C23.592 47.024 24.192 45.152 24.192 42.896V5.81597H30.816Z"
        stroke="white" stroke-width="4" mask="url(#path-1-outside-1_15_6)" />
    <path
        d="M60.9317 56.648C57.2357 56.648 53.8757 55.808 50.8517 54.128C47.8757 52.448 45.5237 50.072 43.7957 47C42.1157 43.88 41.2757 40.28 41.2757 36.2C41.2757 32.168 42.1397 28.616 43.8677 25.544C45.6437 22.424 48.0437 20.048 51.0677 18.416C54.0917 16.736 57.4757 15.896 61.2197 15.896C64.9637 15.896 68.3477 16.736 71.3717 18.416C74.3957 20.048 76.7717 22.4 78.4997 25.472C80.2757 28.544 81.1637 32.12 81.1637 36.2C81.1637 40.28 80.2517 43.88 78.4277 47C76.6517 50.072 74.2277 52.448 71.1557 54.128C68.0837 55.808 64.6757 56.648 60.9317 56.648ZM60.9317 50.888C63.2837 50.888 65.4917 50.336 67.5557 49.232C69.6197 48.128 71.2757 46.472 72.5237 44.264C73.8197 42.056 74.4677 39.368 74.4677 36.2C74.4677 33.032 73.8437 30.344 72.5957 28.136C71.3477 25.928 69.7157 24.296 67.6997 23.24C65.6837 22.136 63.4997 21.584 61.1477 21.584C58.7477 21.584 56.5397 22.136 54.5237 23.24C52.5557 24.296 50.9717 25.928 49.7717 28.136C48.5717 30.344 47.9717 33.032 47.9717 36.2C47.9717 39.416 48.5477 42.128 49.6997 44.336C50.8997 46.544 52.4837 48.2 54.4517 49.304C56.4197 50.36 58.5797 50.888 60.9317 50.888Z"
        stroke="white" stroke-width="4" mask="url(#path-1-outside-1_15_6)" />
    <path
        d="M109.362 15.824C112.338 15.824 115.026 16.472 117.426 17.768C119.826 19.016 121.698 20.912 123.042 23.456C124.434 26 125.13 29.096 125.13 32.744V56H118.65V33.68C118.65 29.744 117.666 26.744 115.698 24.68C113.73 22.568 111.042 21.512 107.634 21.512C104.178 21.512 101.418 22.592 99.3544 24.752C97.3384 26.912 96.3304 30.056 96.3304 34.184V56H89.7784V2.71997H96.3304V22.16C97.6264 20.144 99.4024 18.584 101.658 17.48C103.962 16.376 106.53 15.824 109.362 15.824Z"
        stroke="white" stroke-width="4" mask="url(#path-1-outside-1_15_6)" />
    <path
        d="M133.385 36.128C133.385 32.096 134.201 28.568 135.833 25.544C137.465 22.472 139.697 20.096 142.529 18.416C145.409 16.736 148.601 15.896 152.105 15.896C155.561 15.896 158.561 16.64 161.105 18.128C163.649 19.616 165.545 21.488 166.793 23.744V16.544H173.417V56H166.793V48.656C165.497 50.96 163.553 52.88 160.961 54.416C158.417 55.904 155.441 56.648 152.033 56.648C148.529 56.648 145.361 55.784 142.529 54.056C139.697 52.328 137.465 49.904 135.833 46.784C134.201 43.664 133.385 40.112 133.385 36.128ZM166.793 36.2C166.793 33.224 166.193 30.632 164.993 28.424C163.793 26.216 162.161 24.536 160.097 23.384C158.081 22.184 155.849 21.584 153.401 21.584C150.953 21.584 148.721 22.16 146.705 23.312C144.689 24.464 143.081 26.144 141.881 28.352C140.681 30.56 140.081 33.152 140.081 36.128C140.081 39.152 140.681 41.792 141.881 44.048C143.081 46.256 144.689 47.96 146.705 49.16C148.721 50.312 150.953 50.888 153.401 50.888C155.849 50.888 158.081 50.312 160.097 49.16C162.161 47.96 163.793 46.256 164.993 44.048C166.193 41.792 166.793 39.176 166.793 36.2Z"
        stroke="white" stroke-width="4" mask="url(#path-1-outside-1_15_6)" />
    <path
        d="M203.713 15.824C208.513 15.824 212.401 17.288 215.377 20.216C218.353 23.096 219.841 27.272 219.841 32.744V56H213.361V33.68C213.361 29.744 212.377 26.744 210.409 24.68C208.441 22.568 205.753 21.512 202.345 21.512C198.889 21.512 196.129 22.592 194.065 24.752C192.049 26.912 191.041 30.056 191.041 34.184V56H184.489V16.544H191.041V22.16C192.337 20.144 194.089 18.584 196.297 17.48C198.553 16.376 201.025 15.824 203.713 15.824Z"
        stroke="white" stroke-width="4" mask="url(#path-1-outside-1_15_6)" />
    <path d="M256.291 50.672H273.859V56H249.739V5.81597H256.291V50.672Z" stroke="white"
        stroke-width="4" mask="url(#path-1-outside-1_15_6)" />
    <path
        d="M278.369 36.128C278.369 32.096 279.185 28.568 280.817 25.544C282.449 22.472 284.681 20.096 287.513 18.416C290.393 16.736 293.585 15.896 297.089 15.896C300.545 15.896 303.545 16.64 306.089 18.128C308.633 19.616 310.529 21.488 311.777 23.744V16.544H318.401V56H311.777V48.656C310.481 50.96 308.537 52.88 305.945 54.416C303.401 55.904 300.425 56.648 297.017 56.648C293.513 56.648 290.345 55.784 287.513 54.056C284.681 52.328 282.449 49.904 280.817 46.784C279.185 43.664 278.369 40.112 278.369 36.128ZM311.777 36.2C311.777 33.224 311.177 30.632 309.977 28.424C308.777 26.216 307.145 24.536 305.081 23.384C303.065 22.184 300.833 21.584 298.385 21.584C295.937 21.584 293.705 22.16 291.689 23.312C289.673 24.464 288.065 26.144 286.865 28.352C285.665 30.56 285.065 33.152 285.065 36.128C285.065 39.152 285.665 41.792 286.865 44.048C288.065 46.256 289.673 47.96 291.689 49.16C293.705 50.312 295.937 50.888 298.385 50.888C300.833 50.888 303.065 50.312 305.081 49.16C307.145 47.96 308.777 46.256 309.977 44.048C311.177 41.792 311.777 39.176 311.777 36.2Z"
        stroke="white" stroke-width="4" mask="url(#path-1-outside-1_15_6)" />
    <path
        d="M336.026 23.888C337.37 21.536 339.338 19.616 341.93 18.128C344.522 16.64 347.474 15.896 350.786 15.896C354.338 15.896 357.53 16.736 360.362 18.416C363.194 20.096 365.426 22.472 367.058 25.544C368.69 28.568 369.506 32.096 369.506 36.128C369.506 40.112 368.69 43.664 367.058 46.784C365.426 49.904 363.17 52.328 360.29 54.056C357.458 55.784 354.29 56.648 350.786 56.648C347.378 56.648 344.378 55.904 341.786 54.416C339.242 52.928 337.322 51.032 336.026 48.728V56H329.474V2.71997H336.026V23.888ZM362.81 36.128C362.81 33.152 362.21 30.56 361.01 28.352C359.81 26.144 358.178 24.464 356.114 23.312C354.098 22.16 351.866 21.584 349.418 21.584C347.018 21.584 344.786 22.184 342.722 23.384C340.706 24.536 339.074 26.24 337.826 28.496C336.626 30.704 336.026 33.272 336.026 36.2C336.026 39.176 336.626 41.792 337.826 44.048C339.074 46.256 340.706 47.96 342.722 49.16C344.786 50.312 347.018 50.888 349.418 50.888C351.866 50.888 354.098 50.312 356.114 49.16C358.178 47.96 359.81 46.256 361.01 44.048C362.21 41.792 362.81 39.152 362.81 36.128Z"
        stroke="white" stroke-width="4" mask="url(#path-1-outside-1_15_6)" />
    <path
        d="M384.682 23.888C386.026 21.536 387.994 19.616 390.586 18.128C393.178 16.64 396.13 15.896 399.442 15.896C402.994 15.896 406.186 16.736 409.018 18.416C411.85 20.096 414.082 22.472 415.714 25.544C417.346 28.568 418.162 32.096 418.162 36.128C418.162 40.112 417.346 43.664 415.714 46.784C414.082 49.904 411.826 52.328 408.946 54.056C406.114 55.784 402.946 56.648 399.442 56.648C396.034 56.648 393.034 55.904 390.442 54.416C387.898 52.928 385.978 51.032 384.682 48.728V56H378.13V2.71997H384.682V23.888ZM411.466 36.128C411.466 33.152 410.866 30.56 409.666 28.352C408.466 26.144 406.834 24.464 404.77 23.312C402.754 22.16 400.522 21.584 398.074 21.584C395.674 21.584 393.442 22.184 391.378 23.384C389.362 24.536 387.73 26.24 386.482 28.496C385.282 30.704 384.682 33.272 384.682 36.2C384.682 39.176 385.282 41.792 386.482 44.048C387.73 46.256 389.362 47.96 391.378 49.16C393.442 50.312 395.674 50.888 398.074 50.888C400.522 50.888 402.754 50.312 404.77 49.16C406.834 47.96 408.466 46.256 409.666 44.048C410.866 41.792 411.466 39.152 411.466 36.128Z"
        stroke="white" stroke-width="4" mask="url(#path-1-outside-1_15_6)" />
    <path
        d="M462.786 34.76C462.786 36.008 462.714 37.328 462.57 38.72H431.034C431.274 42.608 432.594 45.656 434.994 47.864C437.442 50.024 440.394 51.104 443.85 51.104C446.682 51.104 449.034 50.456 450.906 49.16C452.826 47.816 454.17 46.04 454.938 43.832H461.994C460.938 47.624 458.826 50.72 455.658 53.12C452.49 55.472 448.554 56.648 443.85 56.648C440.106 56.648 436.746 55.808 433.77 54.128C430.842 52.448 428.538 50.072 426.858 47C425.178 43.88 424.338 40.28 424.338 36.2C424.338 32.12 425.154 28.544 426.786 25.472C428.418 22.4 430.698 20.048 433.626 18.416C436.602 16.736 440.01 15.896 443.85 15.896C447.594 15.896 450.906 16.712 453.786 18.344C456.666 19.976 458.874 22.232 460.41 25.112C461.994 27.944 462.786 31.16 462.786 34.76ZM456.018 33.392C456.018 30.896 455.466 28.76 454.362 26.984C453.258 25.16 451.746 23.792 449.826 22.88C447.954 21.92 445.866 21.44 443.562 21.44C440.25 21.44 437.418 22.496 435.066 24.608C432.762 26.72 431.442 29.648 431.106 33.392H456.018Z"
        stroke="white" stroke-width="4" mask="url(#path-1-outside-1_15_6)" />
</svg>