<svg id="mplogo" width="95%" height="100%" viewBox="0 0 648 85" fill="none"
    xmlns="http://www.w3.org/2000/svg">
    <mask id="path-1-outside-1_15_5" maskUnits="userSpaceOnUse" x="0.777008" y="0.835999"
        width="647" height="85" fill="black">
        <rect fill="white" x="0.777008" y="0.835999" width="647" height="85" />
        <path
            d="M75.184 11.108V81H65.993V28.884L42.763 81H36.299L12.968 28.783V81H3.77701V11.108H13.675L39.531 68.88L65.387 11.108H75.184Z" />
        <path
            d="M114.91 81.909C109.725 81.909 105.012 80.7307 100.77 78.374C96.5955 76.0173 93.2961 72.6843 90.8721 68.375C88.5155 63.9983 87.3372 58.9483 87.3372 53.225C87.3372 47.569 88.5492 42.5863 90.9732 38.277C93.4645 33.9003 96.8312 30.5673 101.073 28.278C105.315 25.9213 110.062 24.743 115.314 24.743C120.566 24.743 125.313 25.9213 129.555 28.278C133.797 30.5673 137.13 33.8667 139.554 38.176C142.045 42.4853 143.291 47.5017 143.291 53.225C143.291 58.9483 142.012 63.9983 139.453 68.375C136.962 72.6843 133.561 76.0173 129.252 78.374C124.943 80.7307 120.162 81.909 114.91 81.909ZM114.91 73.829C118.209 73.829 121.307 73.0547 124.202 71.506C127.097 69.9573 129.42 67.6343 131.171 64.537C132.989 61.4397 133.898 57.669 133.898 53.225C133.898 48.781 133.023 45.0103 131.272 41.913C129.521 38.8157 127.232 36.5263 124.404 35.045C121.576 33.4963 118.512 32.722 115.213 32.722C111.846 32.722 108.749 33.4963 105.921 35.045C103.16 36.5263 100.938 38.8157 99.2551 41.913C97.5718 45.0103 96.7301 48.781 96.7301 53.225C96.7301 57.7363 97.5382 61.5407 99.1542 64.638C100.837 67.7353 103.059 70.0583 105.82 71.607C108.581 73.0883 111.611 73.829 114.91 73.829Z" />
        <path
            d="M182.343 24.642C189.076 24.642 194.53 26.6957 198.705 30.803C202.879 34.843 204.967 40.701 204.967 48.377V81H195.877V49.69C195.877 44.1687 194.496 39.9603 191.736 37.065C188.975 34.1023 185.204 32.621 180.424 32.621C175.576 32.621 171.704 34.136 168.809 37.166C165.981 40.196 164.567 44.6063 164.567 50.397V81H155.376V25.652H164.567V33.53C166.385 30.702 168.842 28.5137 171.94 26.965C175.104 25.4163 178.572 24.642 182.343 24.642Z" />
        <path
            d="M293.973 31.207C293.973 37.065 291.953 41.9467 287.913 45.852C283.94 49.69 277.847 51.609 269.632 51.609H256.098V81H246.907V10.603H269.632C277.577 10.603 283.604 12.522 287.711 16.36C291.886 20.198 293.973 25.147 293.973 31.207ZM269.632 44.034C274.749 44.034 278.52 42.923 280.944 40.701C283.368 38.479 284.58 35.3143 284.58 31.207C284.58 22.521 279.597 18.178 269.632 18.178H256.098V44.034H269.632Z" />
        <path
            d="M329.535 81.909C324.35 81.909 319.637 80.7307 315.395 78.374C311.22 76.0173 307.921 72.6843 305.497 68.375C303.14 63.9983 301.962 58.9483 301.962 53.225C301.962 47.569 303.174 42.5863 305.598 38.277C308.089 33.9003 311.456 30.5673 315.698 28.278C319.94 25.9213 324.687 24.743 329.939 24.743C335.191 24.743 339.938 25.9213 344.18 28.278C348.422 30.5673 351.755 33.8667 354.179 38.176C356.67 42.4853 357.916 47.5017 357.916 53.225C357.916 58.9483 356.637 63.9983 354.078 68.375C351.587 72.6843 348.186 76.0173 343.877 78.374C339.568 80.7307 334.787 81.909 329.535 81.909ZM329.535 73.829C332.834 73.829 335.932 73.0547 338.827 71.506C341.722 69.9573 344.045 67.6343 345.796 64.537C347.614 61.4397 348.523 57.669 348.523 53.225C348.523 48.781 347.648 45.0103 345.897 41.913C344.146 38.8157 341.857 36.5263 339.029 35.045C336.201 33.4963 333.137 32.722 329.838 32.722C326.471 32.722 323.374 33.4963 320.546 35.045C317.785 36.5263 315.563 38.8157 313.88 41.913C312.197 45.0103 311.355 48.781 311.355 53.225C311.355 57.7363 312.163 61.5407 313.779 64.638C315.462 67.7353 317.684 70.0583 320.445 71.607C323.206 73.0883 326.236 73.829 329.535 73.829Z" />
        <path
            d="M379.192 34.641C380.808 31.4763 383.097 29.0187 386.06 27.268C389.09 25.5173 392.759 24.642 397.069 24.642V34.136H394.645C384.343 34.136 379.192 39.7247 379.192 50.902V81H370.001V25.652H379.192V34.641Z" />
        <path
            d="M418.889 33.227V65.85C418.889 68.5433 419.462 70.4623 420.606 71.607C421.751 72.6843 423.737 73.223 426.565 73.223H433.332V81H425.05C419.933 81 416.095 79.8217 413.536 77.465C410.978 75.1083 409.698 71.2367 409.698 65.85V33.227H402.527V25.652H409.698V11.714H418.889V25.652H433.332V33.227H418.889Z" />
        <path
            d="M466.991 33.227H455.376V81H446.185V33.227H439.014V25.652H446.185V21.713C446.185 15.5183 447.768 11.007 450.932 8.179C454.164 5.28366 459.315 3.836 466.385 3.836V11.512C462.345 11.512 459.484 12.32 457.8 13.936C456.184 15.4847 455.376 18.077 455.376 21.713V25.652H466.991V33.227Z" />
        <path
            d="M501.847 81.909C496.662 81.909 491.949 80.7307 487.707 78.374C483.532 76.0173 480.233 72.6843 477.809 68.375C475.452 63.9983 474.274 58.9483 474.274 53.225C474.274 47.569 475.486 42.5863 477.91 38.277C480.401 33.9003 483.768 30.5673 488.01 28.278C492.252 25.9213 496.999 24.743 502.251 24.743C507.503 24.743 512.25 25.9213 516.492 28.278C520.734 30.5673 524.067 33.8667 526.491 38.176C528.982 42.4853 530.228 47.5017 530.228 53.225C530.228 58.9483 528.948 63.9983 526.39 68.375C523.898 72.6843 520.498 76.0173 516.189 78.374C511.879 80.7307 507.099 81.909 501.847 81.909ZM501.847 73.829C505.146 73.829 508.243 73.0547 511.139 71.506C514.034 69.9573 516.357 67.6343 518.108 64.537C519.926 61.4397 520.835 57.669 520.835 53.225C520.835 48.781 519.959 45.0103 518.209 41.913C516.458 38.8157 514.169 36.5263 511.341 35.045C508.513 33.4963 505.449 32.722 502.15 32.722C498.783 32.722 495.686 33.4963 492.858 35.045C490.097 36.5263 487.875 38.8157 486.192 41.913C484.508 45.0103 483.667 48.781 483.667 53.225C483.667 57.7363 484.475 61.5407 486.091 64.638C487.774 67.7353 489.996 70.0583 492.757 71.607C495.517 73.0883 498.547 73.829 501.847 73.829Z" />
        <path d="M551.503 6.26V81H542.312V6.26H551.503Z" />
        <path
            d="M571.915 16.663C570.164 16.663 568.683 16.057 567.471 14.845C566.259 13.633 565.653 12.1517 565.653 10.401C565.653 8.65033 566.259 7.169 567.471 5.957C568.683 4.745 570.164 4.139 571.915 4.139C573.598 4.139 575.012 4.745 576.157 5.957C577.369 7.169 577.975 8.65033 577.975 10.401C577.975 12.1517 577.369 13.633 576.157 14.845C575.012 16.057 573.598 16.663 571.915 16.663ZM576.359 25.652V81H567.168V25.652H576.359Z" />
        <path
            d="M616.162 81.909C610.977 81.909 606.264 80.7307 602.022 78.374C597.847 76.0173 594.548 72.6843 592.124 68.375C589.767 63.9983 588.589 58.9483 588.589 53.225C588.589 47.569 589.801 42.5863 592.225 38.277C594.716 33.9003 598.083 30.5673 602.325 28.278C606.567 25.9213 611.314 24.743 616.566 24.743C621.818 24.743 626.565 25.9213 630.807 28.278C635.049 30.5673 638.382 33.8667 640.806 38.176C643.297 42.4853 644.543 47.5017 644.543 53.225C644.543 58.9483 643.264 63.9983 640.705 68.375C638.214 72.6843 634.813 76.0173 630.504 78.374C626.195 80.7307 621.414 81.909 616.162 81.909ZM616.162 73.829C619.461 73.829 622.559 73.0547 625.454 71.506C628.349 69.9573 630.672 67.6343 632.423 64.537C634.241 61.4397 635.15 57.669 635.15 53.225C635.15 48.781 634.275 45.0103 632.524 41.913C630.773 38.8157 628.484 36.5263 625.656 35.045C622.828 33.4963 619.764 32.722 616.465 32.722C613.098 32.722 610.001 33.4963 607.173 35.045C604.412 36.5263 602.19 38.8157 600.507 41.913C598.824 45.0103 597.982 48.781 597.982 53.225C597.982 57.7363 598.79 61.5407 600.406 64.638C602.089 67.7353 604.311 70.0583 607.072 71.607C609.833 73.0883 612.863 73.829 616.162 73.829Z" />
    </mask>
    <path
        d="M75.184 11.108V81H65.993V28.884L42.763 81H36.299L12.968 28.783V81H3.77701V11.108H13.675L39.531 68.88L65.387 11.108H75.184Z"
        stroke="white" stroke-width="6" mask="url(#path-1-outside-1_15_5)" />
    <path
        d="M114.91 81.909C109.725 81.909 105.012 80.7307 100.77 78.374C96.5955 76.0173 93.2961 72.6843 90.8721 68.375C88.5155 63.9983 87.3372 58.9483 87.3372 53.225C87.3372 47.569 88.5492 42.5863 90.9732 38.277C93.4645 33.9003 96.8312 30.5673 101.073 28.278C105.315 25.9213 110.062 24.743 115.314 24.743C120.566 24.743 125.313 25.9213 129.555 28.278C133.797 30.5673 137.13 33.8667 139.554 38.176C142.045 42.4853 143.291 47.5017 143.291 53.225C143.291 58.9483 142.012 63.9983 139.453 68.375C136.962 72.6843 133.561 76.0173 129.252 78.374C124.943 80.7307 120.162 81.909 114.91 81.909ZM114.91 73.829C118.209 73.829 121.307 73.0547 124.202 71.506C127.097 69.9573 129.42 67.6343 131.171 64.537C132.989 61.4397 133.898 57.669 133.898 53.225C133.898 48.781 133.023 45.0103 131.272 41.913C129.521 38.8157 127.232 36.5263 124.404 35.045C121.576 33.4963 118.512 32.722 115.213 32.722C111.846 32.722 108.749 33.4963 105.921 35.045C103.16 36.5263 100.938 38.8157 99.2551 41.913C97.5718 45.0103 96.7301 48.781 96.7301 53.225C96.7301 57.7363 97.5382 61.5407 99.1542 64.638C100.837 67.7353 103.059 70.0583 105.82 71.607C108.581 73.0883 111.611 73.829 114.91 73.829Z"
        stroke="white" stroke-width="6" mask="url(#path-1-outside-1_15_5)" />
    <path
        d="M182.343 24.642C189.076 24.642 194.53 26.6957 198.705 30.803C202.879 34.843 204.967 40.701 204.967 48.377V81H195.877V49.69C195.877 44.1687 194.496 39.9603 191.736 37.065C188.975 34.1023 185.204 32.621 180.424 32.621C175.576 32.621 171.704 34.136 168.809 37.166C165.981 40.196 164.567 44.6063 164.567 50.397V81H155.376V25.652H164.567V33.53C166.385 30.702 168.842 28.5137 171.94 26.965C175.104 25.4163 178.572 24.642 182.343 24.642Z"
        stroke="white" stroke-width="6" mask="url(#path-1-outside-1_15_5)" />
    <path
        d="M293.973 31.207C293.973 37.065 291.953 41.9467 287.913 45.852C283.94 49.69 277.847 51.609 269.632 51.609H256.098V81H246.907V10.603H269.632C277.577 10.603 283.604 12.522 287.711 16.36C291.886 20.198 293.973 25.147 293.973 31.207ZM269.632 44.034C274.749 44.034 278.52 42.923 280.944 40.701C283.368 38.479 284.58 35.3143 284.58 31.207C284.58 22.521 279.597 18.178 269.632 18.178H256.098V44.034H269.632Z"
        stroke="white" stroke-width="6" mask="url(#path-1-outside-1_15_5)" />
    <path
        d="M329.535 81.909C324.35 81.909 319.637 80.7307 315.395 78.374C311.22 76.0173 307.921 72.6843 305.497 68.375C303.14 63.9983 301.962 58.9483 301.962 53.225C301.962 47.569 303.174 42.5863 305.598 38.277C308.089 33.9003 311.456 30.5673 315.698 28.278C319.94 25.9213 324.687 24.743 329.939 24.743C335.191 24.743 339.938 25.9213 344.18 28.278C348.422 30.5673 351.755 33.8667 354.179 38.176C356.67 42.4853 357.916 47.5017 357.916 53.225C357.916 58.9483 356.637 63.9983 354.078 68.375C351.587 72.6843 348.186 76.0173 343.877 78.374C339.568 80.7307 334.787 81.909 329.535 81.909ZM329.535 73.829C332.834 73.829 335.932 73.0547 338.827 71.506C341.722 69.9573 344.045 67.6343 345.796 64.537C347.614 61.4397 348.523 57.669 348.523 53.225C348.523 48.781 347.648 45.0103 345.897 41.913C344.146 38.8157 341.857 36.5263 339.029 35.045C336.201 33.4963 333.137 32.722 329.838 32.722C326.471 32.722 323.374 33.4963 320.546 35.045C317.785 36.5263 315.563 38.8157 313.88 41.913C312.197 45.0103 311.355 48.781 311.355 53.225C311.355 57.7363 312.163 61.5407 313.779 64.638C315.462 67.7353 317.684 70.0583 320.445 71.607C323.206 73.0883 326.236 73.829 329.535 73.829Z"
        stroke="white" stroke-width="6" mask="url(#path-1-outside-1_15_5)" />
    <path
        d="M379.192 34.641C380.808 31.4763 383.097 29.0187 386.06 27.268C389.09 25.5173 392.759 24.642 397.069 24.642V34.136H394.645C384.343 34.136 379.192 39.7247 379.192 50.902V81H370.001V25.652H379.192V34.641Z"
        stroke="white" stroke-width="6" mask="url(#path-1-outside-1_15_5)" />
    <path
        d="M418.889 33.227V65.85C418.889 68.5433 419.462 70.4623 420.606 71.607C421.751 72.6843 423.737 73.223 426.565 73.223H433.332V81H425.05C419.933 81 416.095 79.8217 413.536 77.465C410.978 75.1083 409.698 71.2367 409.698 65.85V33.227H402.527V25.652H409.698V11.714H418.889V25.652H433.332V33.227H418.889Z"
        stroke="white" stroke-width="6" mask="url(#path-1-outside-1_15_5)" />
    <path
        d="M466.991 33.227H455.376V81H446.185V33.227H439.014V25.652H446.185V21.713C446.185 15.5183 447.768 11.007 450.932 8.179C454.164 5.28366 459.315 3.836 466.385 3.836V11.512C462.345 11.512 459.484 12.32 457.8 13.936C456.184 15.4847 455.376 18.077 455.376 21.713V25.652H466.991V33.227Z"
        stroke="white" stroke-width="6" mask="url(#path-1-outside-1_15_5)" />
    <path
        d="M501.847 81.909C496.662 81.909 491.949 80.7307 487.707 78.374C483.532 76.0173 480.233 72.6843 477.809 68.375C475.452 63.9983 474.274 58.9483 474.274 53.225C474.274 47.569 475.486 42.5863 477.91 38.277C480.401 33.9003 483.768 30.5673 488.01 28.278C492.252 25.9213 496.999 24.743 502.251 24.743C507.503 24.743 512.25 25.9213 516.492 28.278C520.734 30.5673 524.067 33.8667 526.491 38.176C528.982 42.4853 530.228 47.5017 530.228 53.225C530.228 58.9483 528.948 63.9983 526.39 68.375C523.898 72.6843 520.498 76.0173 516.189 78.374C511.879 80.7307 507.099 81.909 501.847 81.909ZM501.847 73.829C505.146 73.829 508.243 73.0547 511.139 71.506C514.034 69.9573 516.357 67.6343 518.108 64.537C519.926 61.4397 520.835 57.669 520.835 53.225C520.835 48.781 519.959 45.0103 518.209 41.913C516.458 38.8157 514.169 36.5263 511.341 35.045C508.513 33.4963 505.449 32.722 502.15 32.722C498.783 32.722 495.686 33.4963 492.858 35.045C490.097 36.5263 487.875 38.8157 486.192 41.913C484.508 45.0103 483.667 48.781 483.667 53.225C483.667 57.7363 484.475 61.5407 486.091 64.638C487.774 67.7353 489.996 70.0583 492.757 71.607C495.517 73.0883 498.547 73.829 501.847 73.829Z"
        stroke="white" stroke-width="6" mask="url(#path-1-outside-1_15_5)" />
    <path d="M551.503 6.26V81H542.312V6.26H551.503Z" stroke="white" stroke-width="6"
        mask="url(#path-1-outside-1_15_5)" />
    <path
        d="M571.915 16.663C570.164 16.663 568.683 16.057 567.471 14.845C566.259 13.633 565.653 12.1517 565.653 10.401C565.653 8.65033 566.259 7.169 567.471 5.957C568.683 4.745 570.164 4.139 571.915 4.139C573.598 4.139 575.012 4.745 576.157 5.957C577.369 7.169 577.975 8.65033 577.975 10.401C577.975 12.1517 577.369 13.633 576.157 14.845C575.012 16.057 573.598 16.663 571.915 16.663ZM576.359 25.652V81H567.168V25.652H576.359Z"
        stroke="white" stroke-width="6" mask="url(#path-1-outside-1_15_5)" />
    <path
        d="M616.162 81.909C610.977 81.909 606.264 80.7307 602.022 78.374C597.847 76.0173 594.548 72.6843 592.124 68.375C589.767 63.9983 588.589 58.9483 588.589 53.225C588.589 47.569 589.801 42.5863 592.225 38.277C594.716 33.9003 598.083 30.5673 602.325 28.278C606.567 25.9213 611.314 24.743 616.566 24.743C621.818 24.743 626.565 25.9213 630.807 28.278C635.049 30.5673 638.382 33.8667 640.806 38.176C643.297 42.4853 644.543 47.5017 644.543 53.225C644.543 58.9483 643.264 63.9983 640.705 68.375C638.214 72.6843 634.813 76.0173 630.504 78.374C626.195 80.7307 621.414 81.909 616.162 81.909ZM616.162 73.829C619.461 73.829 622.559 73.0547 625.454 71.506C628.349 69.9573 630.672 67.6343 632.423 64.537C634.241 61.4397 635.15 57.669 635.15 53.225C635.15 48.781 634.275 45.0103 632.524 41.913C630.773 38.8157 628.484 36.5263 625.656 35.045C622.828 33.4963 619.764 32.722 616.465 32.722C613.098 32.722 610.001 33.4963 607.173 35.045C604.412 36.5263 602.19 38.8157 600.507 41.913C598.824 45.0103 597.982 48.781 597.982 53.225C597.982 57.7363 598.79 61.5407 600.406 64.638C602.089 67.7353 604.311 70.0583 607.072 71.607C609.833 73.0883 612.863 73.829 616.162 73.829Z"
        stroke="white" stroke-width="6" mask="url(#path-1-outside-1_15_5)" />
</svg>